<?xml version="1.0" encoding="UTF-8"?>
<svg xmlns="http://www.w3.org/2000/svg" xmlns:xlink="http://www.w3.org/1999/xlink" viewBox="0 0 1200 509" version="1.1">
<defs>
<linearGradient id="linear0" gradientUnits="userSpaceOnUse" x1="539.0979" y1="302.928497" x2="594.588318" y2="256.366608" gradientTransform="matrix(1.543217,0,0,1.023048,0.390636,0)">
<stop offset="0" style="stop-color:rgb(81.960784%,58.823529%,40%);stop-opacity:1;"/>
<stop offset="0.2315" style="stop-color:rgb(88.235294%,66.27451%,29.803922%);stop-opacity:1;"/>
<stop offset="0.5307" style="stop-color:rgb(94.509804%,73.72549%,19.215686%);stop-opacity:1;"/>
<stop offset="0.7965" style="stop-color:rgb(98.431373%,78.431373%,12.941176%);stop-opacity:1;"/>
<stop offset="0.9997" style="stop-color:rgb(100%,80%,10.588235%);stop-opacity:1;"/>
</linearGradient>
</defs>
<g id="surface1">
<path style=" stroke:none;fill-rule:nonzero;fill:url(#linear0);" d="M 809.636719 291.28125 L 844.636719 302.761719 L 861.859375 325.964844 C 862.601562 326.894531 863.636719 327.640625 864.976562 328.214844 C 866.382812 328.777344 867.910156 329.0625 869.5625 329.0625 L 869.929688 329.0625 C 871.582031 329.023438 873.109375 328.675781 874.515625 328.03125 C 875.859375 327.386719 876.828125 326.558594 877.445312 325.542969 L 914.191406 263.945312 C 914.808594 262.894531 914.945312 261.820312 914.652344 260.722656 C 914.285156 259.589844 913.496094 258.617188 912.277344 257.808594 C 911.121094 257.039062 909.683594 256.527344 907.972656 256.292969 C 906.320312 256.089844 904.699219 256.191406 903.109375 256.601562 L 810.285156 280.960938 C 808.757812 281.367188 807.507812 282.011719 806.535156 282.902344 C 805.5625 283.835938 805.039062 284.867188 804.976562 286.003906 C 804.914062 287.097656 805.316406 288.132812 806.164062 289.101562 C 807.015625 290.074219 808.171875 290.792969 809.636719 291.28125 Z M 809.636719 291.28125 "/>
<path style=" stroke:none;fill-rule:nonzero;fill:rgb(74.117649%,70.980394%,68.627453%);fill-opacity:1;" d="M 154.019531 382.304688 C 152.152344 382.210938 150.484375 382.097656 149.035156 381.976562 L 149.035156 379.386719 C 152.613281 379.652344 155.871094 379.785156 158.832031 379.785156 C 160.667969 379.785156 162.027344 379.703125 162.890625 379.53125 C 163.753906 379.367188 164.328125 379.089844 164.589844 378.722656 C 164.867188 378.355469 164.988281 377.800781 164.988281 377.054688 C 164.988281 376.316406 164.898438 375.777344 164.695312 375.457031 C 164.496094 375.132812 164.1875 374.917969 163.753906 374.792969 C 163.324219 374.671875 162.566406 374.578125 161.488281 374.507812 L 154.28125 373.964844 C 152.613281 373.84375 151.347656 373.597656 150.46875 373.207031 C 149.589844 372.820312 148.972656 372.296875 148.648438 371.632812 C 148.324219 370.957031 148.152344 370.066406 148.152344 368.941406 C 148.152344 367.386719 148.570312 366.21875 149.417969 365.441406 C 150.269531 364.664062 151.441406 364.152344 152.9375 363.917969 C 154.433594 363.683594 156.457031 363.558594 158.972656 363.558594 C 160.375 363.558594 161.902344 363.613281 163.523438 363.703125 C 165.144531 363.796875 166.519531 363.917969 167.644531 364.0625 L 167.644531 366.648438 C 164.820312 366.363281 161.917969 366.21875 158.925781 366.21875 C 157.257812 366.21875 155.992188 366.273438 155.128906 366.382812 C 154.265625 366.496094 153.585938 366.730469 153.121094 367.101562 C 152.644531 367.46875 152.414062 368.050781 152.414062 368.839844 C 152.414062 369.535156 152.503906 370.035156 152.691406 370.34375 C 152.875 370.660156 153.183594 370.863281 153.617188 370.988281 C 154.046875 371.109375 154.773438 371.203125 155.777344 371.273438 L 163.246094 371.847656 C 164.835938 371.96875 166.039062 372.164062 166.84375 372.441406 C 167.660156 372.71875 168.246094 373.199219 168.632812 373.894531 C 169.019531 374.589844 169.203125 375.613281 169.203125 376.984375 C 169.203125 378.488281 168.832031 379.644531 168.09375 380.429688 C 167.351562 381.21875 166.269531 381.75 164.835938 382.027344 C 163.402344 382.304688 161.472656 382.4375 159.019531 382.4375 C 157.566406 382.445312 155.902344 382.394531 154.019531 382.304688 Z M 154.019531 382.304688 "/>
<path style=" stroke:none;fill-rule:nonzero;fill:rgb(74.117649%,70.980394%,68.627453%);fill-opacity:1;" d="M 176.765625 358.824219 L 176.765625 355.488281 L 181.425781 355.488281 L 181.425781 358.824219 Z M 176.917969 382.160156 L 176.917969 363.847656 L 181.300781 363.847656 L 181.300781 382.160156 Z M 176.917969 382.160156 "/>
<path style=" stroke:none;fill-rule:nonzero;fill:rgb(74.117649%,70.980394%,68.627453%);fill-opacity:1;" d="M 194.789062 382.304688 C 192.921875 382.210938 191.253906 382.097656 189.804688 381.976562 L 189.804688 379.386719 C 193.386719 379.652344 196.640625 379.785156 199.605469 379.785156 C 201.441406 379.785156 202.800781 379.703125 203.664062 379.53125 C 204.527344 379.367188 205.097656 379.089844 205.359375 378.722656 C 205.636719 378.355469 205.761719 377.800781 205.761719 377.054688 C 205.761719 376.316406 205.667969 375.777344 205.46875 375.457031 C 205.269531 375.132812 204.960938 374.917969 204.527344 374.792969 C 204.09375 374.671875 203.339844 374.578125 202.257812 374.507812 L 195.050781 373.964844 C 193.386719 373.84375 192.121094 373.597656 191.242188 373.207031 C 190.359375 372.820312 189.742188 372.296875 189.417969 371.632812 C 189.09375 370.957031 188.925781 370.066406 188.925781 368.941406 C 188.925781 367.386719 189.34375 366.21875 190.191406 365.441406 C 191.039062 364.664062 192.210938 364.152344 193.710938 363.917969 C 195.207031 363.683594 197.226562 363.558594 199.742188 363.558594 C 201.148438 363.558594 202.675781 363.613281 204.296875 363.703125 C 205.917969 363.796875 207.289062 363.917969 208.417969 364.0625 L 208.417969 366.648438 C 205.59375 366.363281 202.691406 366.21875 199.695312 366.21875 C 198.03125 366.21875 196.765625 366.273438 195.902344 366.382812 C 195.035156 366.496094 194.359375 366.730469 193.894531 367.101562 C 193.417969 367.46875 193.183594 368.050781 193.183594 368.839844 C 193.183594 369.535156 193.277344 370.035156 193.460938 370.34375 C 193.648438 370.660156 193.957031 370.863281 194.386719 370.988281 C 194.820312 371.109375 195.546875 371.203125 196.550781 371.273438 L 204.019531 371.847656 C 205.609375 371.96875 206.8125 372.164062 207.613281 372.441406 C 208.417969 372.71875 209.019531 373.199219 209.402344 373.894531 C 209.789062 374.589844 209.976562 375.613281 209.976562 376.984375 C 209.976562 378.488281 209.605469 379.644531 208.863281 380.429688 C 208.121094 381.21875 207.042969 381.75 205.609375 382.027344 C 204.171875 382.304688 202.242188 382.4375 199.789062 382.4375 C 198.355469 382.445312 196.671875 382.394531 194.789062 382.304688 Z M 194.789062 382.304688 "/>
<path style=" stroke:none;fill-rule:nonzero;fill:rgb(74.117649%,70.980394%,68.627453%);fill-opacity:1;" d="M 219.710938 382.160156 L 219.710938 366.507812 L 214.140625 366.507812 L 214.140625 363.847656 L 219.710938 363.847656 L 219.710938 358.539062 L 224.09375 358.539062 L 224.09375 363.847656 L 230.699219 363.847656 L 230.699219 366.507812 L 224.09375 366.507812 L 224.09375 382.160156 Z M 219.710938 382.160156 "/>
<path style=" stroke:none;fill-rule:nonzero;fill:rgb(74.117649%,70.980394%,68.627453%);fill-opacity:1;" d="M 258.710938 374.046875 L 239.804688 374.046875 C 239.804688 375.796875 239.992188 377.035156 240.34375 377.78125 C 240.699219 378.515625 241.488281 379.039062 242.707031 379.347656 C 243.910156 379.644531 245.949219 379.796875 248.800781 379.796875 C 251.578125 379.796875 254.527344 379.664062 257.628906 379.398438 L 257.628906 381.945312 C 256.472656 382.089844 254.976562 382.210938 253.136719 382.304688 C 251.300781 382.394531 249.542969 382.445312 247.890625 382.445312 C 244.171875 382.445312 241.441406 382.160156 239.683594 381.585938 C 237.921875 381.015625 236.78125 380.09375 236.242188 378.824219 C 235.699219 377.554688 235.421875 375.632812 235.421875 373.042969 C 235.421875 370.507812 235.667969 368.605469 236.148438 367.335938 C 236.640625 366.066406 237.738281 365.125 239.449219 364.5 C 241.164062 363.878906 243.878906 363.570312 247.597656 363.570312 C 251.070312 363.570312 253.570312 363.878906 255.128906 364.492188 C 256.6875 365.105469 257.660156 366.027344 258.078125 367.253906 C 258.492188 368.480469 258.695312 370.40625 258.695312 373.011719 L 258.695312 374.046875 Z M 242.429688 366.628906 C 241.394531 366.90625 240.714844 367.417969 240.375 368.175781 C 240.035156 368.929688 239.835938 370.148438 239.804688 371.816406 L 254.480469 371.816406 L 254.480469 371.53125 C 254.480469 369.953125 254.28125 368.789062 253.863281 368.042969 C 253.449219 367.304688 252.769531 366.8125 251.828125 366.566406 C 250.886719 366.332031 249.449219 366.210938 247.492188 366.210938 C 245.144531 366.210938 243.460938 366.351562 242.429688 366.628906 Z M 242.429688 366.628906 "/>
<path style=" stroke:none;fill-rule:nonzero;fill:rgb(74.117649%,70.980394%,68.627453%);fill-opacity:1;" d="M 300.949219 371.859375 C 300.949219 370.140625 300.808594 368.910156 300.546875 368.195312 C 300.269531 367.480469 299.742188 366.996094 298.941406 366.761719 C 298.15625 366.527344 296.8125 366.40625 294.929688 366.40625 C 292.90625 366.40625 291.425781 366.628906 290.484375 367.089844 C 289.542969 367.539062 288.941406 368.195312 288.695312 369.035156 C 288.449219 369.871094 288.308594 371.109375 288.308594 372.726562 L 288.308594 382.167969 L 283.925781 382.167969 L 283.925781 371.867188 C 283.925781 370.148438 283.785156 368.921875 283.523438 368.207031 C 283.246094 367.488281 282.722656 367.007812 281.917969 366.773438 C 281.132812 366.539062 279.789062 366.414062 277.90625 366.414062 C 275.886719 366.414062 274.402344 366.648438 273.460938 367.121094 C 272.519531 367.582031 271.933594 368.246094 271.671875 369.09375 C 271.410156 369.945312 271.285156 371.160156 271.285156 372.738281 L 271.285156 382.179688 L 266.902344 382.179688 L 266.902344 363.867188 L 270.808594 363.867188 L 271.023438 366.457031 L 271.347656 366.457031 C 271.890625 365.523438 272.816406 364.808594 274.140625 364.316406 C 275.453125 363.828125 277.320312 363.582031 279.742188 363.582031 C 282.121094 363.582031 283.925781 363.804688 285.160156 364.265625 C 286.394531 364.714844 287.226562 365.453125 287.707031 366.457031 L 288.09375 366.457031 C 289.25 364.542969 292.121094 363.582031 296.703125 363.582031 C 299.125 363.582031 300.949219 363.835938 302.183594 364.339844 C 303.402344 364.839844 304.234375 365.585938 304.667969 366.578125 C 305.097656 367.570312 305.316406 368.953125 305.316406 370.722656 L 305.316406 382.179688 L 300.933594 382.179688 L 300.933594 371.859375 Z M 300.949219 371.859375 "/>
<path style=" stroke:none;fill-rule:nonzero;fill:rgb(74.117649%,70.980394%,68.627453%);fill-opacity:1;" d="M 315.191406 381.28125 C 313.742188 380.503906 313.03125 379.121094 313.03125 377.136719 C 313.03125 375.722656 313.277344 374.621094 313.785156 373.832031 C 314.296875 373.042969 315.144531 372.472656 316.363281 372.101562 C 317.582031 371.734375 319.28125 371.5625 321.488281 371.5625 C 322.539062 371.5625 325.976562 371.621094 331.828125 371.746094 L 331.828125 370.671875 C 331.828125 369.238281 331.625 368.214844 331.210938 367.621094 C 330.792969 367.027344 330.039062 366.640625 328.941406 366.476562 C 327.847656 366.3125 325.976562 366.21875 323.339844 366.21875 C 322.183594 366.21875 320.730469 366.261719 318.972656 366.34375 C 317.214844 366.425781 315.855469 366.515625 314.882812 366.609375 L 314.882812 364.0625 C 317.738281 363.722656 321.070312 363.558594 324.898438 363.558594 C 328.15625 363.558594 330.578125 363.785156 332.183594 364.226562 C 333.789062 364.664062 334.867188 365.390625 335.40625 366.382812 C 335.949219 367.375 336.226562 368.820312 336.226562 370.710938 L 336.226562 382.167969 L 332.273438 382.167969 L 332.058594 379.621094 L 331.734375 379.621094 C 330.980469 380.769531 329.757812 381.535156 328.078125 381.902344 C 326.394531 382.273438 324.417969 382.457031 322.152344 382.457031 C 318.941406 382.445312 316.640625 382.058594 315.191406 381.28125 Z M 328.214844 379.5 C 329.359375 379.285156 330.175781 378.867188 330.667969 378.242188 C 331.425781 377.382812 331.8125 376.183594 331.8125 374.648438 L 331.8125 373.820312 L 322.597656 373.820312 C 321.085938 373.820312 319.976562 373.894531 319.265625 374.035156 C 318.554688 374.179688 318.0625 374.464844 317.785156 374.875 C 317.492188 375.292969 317.351562 375.949219 317.351562 376.828125 C 317.351562 377.6875 317.523438 378.324219 317.847656 378.730469 C 318.167969 379.140625 318.773438 379.417969 319.667969 379.570312 C 320.546875 379.726562 321.933594 379.804688 323.800781 379.804688 C 325.609375 379.828125 327.074219 379.714844 328.214844 379.5 Z M 328.214844 379.5 "/>
<path style=" stroke:none;fill-rule:nonzero;fill:rgb(74.117649%,70.980394%,68.627453%);fill-opacity:1;" d="M 349.742188 382.304688 C 347.875 382.210938 346.210938 382.097656 344.757812 381.976562 L 344.757812 379.386719 C 348.339844 379.652344 351.597656 379.785156 354.558594 379.785156 C 356.394531 379.785156 357.753906 379.703125 358.617188 379.53125 C 359.480469 379.367188 360.050781 379.089844 360.316406 378.722656 C 360.59375 378.355469 360.714844 377.800781 360.714844 377.054688 C 360.714844 376.316406 360.625 375.777344 360.421875 375.457031 C 360.222656 375.132812 359.914062 374.917969 359.480469 374.792969 C 359.050781 374.671875 358.292969 374.578125 357.214844 374.507812 L 350.007812 373.964844 C 348.339844 373.84375 347.074219 373.597656 346.195312 373.207031 C 345.316406 372.820312 344.699219 372.296875 344.375 371.632812 C 344.050781 370.957031 343.878906 370.066406 343.878906 368.941406 C 343.878906 367.386719 344.296875 366.21875 345.144531 365.441406 C 345.992188 364.664062 347.167969 364.152344 348.664062 363.917969 C 350.160156 363.683594 352.183594 363.558594 354.699219 363.558594 C 356.101562 363.558594 357.628906 363.613281 359.25 363.703125 C 360.871094 363.796875 362.242188 363.917969 363.371094 364.0625 L 363.371094 366.648438 C 360.546875 366.363281 357.644531 366.21875 354.652344 366.21875 C 352.984375 366.21875 351.71875 366.273438 350.855469 366.382812 C 349.992188 366.496094 349.3125 366.730469 348.847656 367.101562 C 348.371094 367.46875 348.140625 368.050781 348.140625 368.839844 C 348.140625 369.535156 348.230469 370.035156 348.417969 370.34375 C 348.601562 370.660156 348.910156 370.863281 349.34375 370.988281 C 349.773438 371.109375 350.5 371.203125 351.503906 371.273438 L 358.972656 371.847656 C 360.5625 371.96875 361.765625 372.164062 362.566406 372.441406 C 363.371094 372.71875 363.972656 373.199219 364.359375 373.894531 C 364.742188 374.589844 364.929688 375.613281 364.929688 376.984375 C 364.929688 378.488281 364.558594 379.644531 363.816406 380.429688 C 363.078125 381.21875 361.996094 381.75 360.5625 382.027344 C 359.140625 382.304688 357.199219 382.4375 354.742188 382.4375 C 353.308594 382.445312 351.625 382.394531 349.742188 382.304688 Z M 349.742188 382.304688 "/>
<path style=" stroke:none;fill-rule:nonzero;fill:rgb(74.117649%,70.980394%,68.627453%);fill-opacity:1;" d="M 388.140625 381.617188 C 386.6875 381.066406 385.671875 380.125 385.082031 378.804688 C 384.496094 377.472656 384.1875 375.550781 384.1875 373.042969 C 384.1875 370.507812 384.480469 368.574219 385.054688 367.222656 C 385.625 365.882812 386.625 364.941406 388.0625 364.390625 C 389.480469 363.835938 391.550781 363.558594 394.265625 363.558594 C 396.640625 363.558594 398.570312 363.753906 400.039062 364.132812 C 401.503906 364.523438 402.566406 365.1875 403.261719 366.136719 L 403.585938 366.136719 L 403.585938 355.476562 L 407.96875 355.476562 L 407.96875 382.160156 L 404.019531 382.160156 L 403.847656 379.613281 L 403.523438 379.613281 C 402.769531 380.71875 401.613281 381.464844 400.054688 381.851562 C 398.496094 382.242188 396.628906 382.445312 394.421875 382.445312 C 391.6875 382.445312 389.589844 382.167969 388.140625 381.617188 Z M 400.546875 379.160156 C 401.628906 378.835938 402.367188 378.332031 402.769531 377.636719 C 403.140625 377.085938 403.355469 376.460938 403.449219 375.753906 C 403.539062 375.050781 403.585938 374.078125 403.585938 372.828125 C 403.585938 371.796875 403.539062 370.945312 403.433594 370.28125 C 403.324219 369.617188 403.125 369.035156 402.832031 368.5625 C 402.398438 367.816406 401.628906 367.273438 400.53125 366.925781 C 399.4375 366.578125 397.921875 366.40625 396.007812 366.40625 C 393.742188 366.40625 392.105469 366.558594 391.117188 366.855469 C 390.128906 367.152344 389.449219 367.746094 389.113281 368.636719 C 388.773438 369.523438 388.601562 370.976562 388.601562 373.011719 C 388.601562 375.089844 388.773438 376.582031 389.113281 377.464844 C 389.449219 378.355469 390.113281 378.9375 391.117188 379.222656 C 392.105469 379.511719 393.773438 379.652344 396.132812 379.652344 C 397.984375 379.644531 399.464844 379.480469 400.546875 379.160156 Z M 400.546875 379.160156 "/>
<path style=" stroke:none;fill-rule:nonzero;fill:rgb(74.117649%,70.980394%,68.627453%);fill-opacity:1;" d="M 439.480469 374.046875 L 420.578125 374.046875 C 420.578125 375.796875 420.761719 377.035156 421.117188 377.78125 C 421.472656 378.515625 422.261719 379.039062 423.480469 379.347656 C 424.683594 379.644531 426.71875 379.796875 429.574219 379.796875 C 432.351562 379.796875 435.300781 379.664062 438.402344 379.398438 L 438.402344 381.945312 C 437.246094 382.089844 435.746094 382.210938 433.910156 382.304688 C 432.074219 382.394531 430.316406 382.445312 428.664062 382.445312 C 424.945312 382.445312 422.214844 382.160156 420.453125 381.585938 C 418.695312 381.015625 417.554688 380.09375 417.011719 378.824219 C 416.472656 377.554688 416.195312 375.632812 416.195312 373.042969 C 416.195312 370.507812 416.441406 368.605469 416.921875 367.335938 C 417.414062 366.066406 418.511719 365.125 420.222656 364.5 C 421.9375 363.878906 424.652344 363.570312 428.371094 363.570312 C 431.84375 363.570312 434.34375 363.878906 435.902344 364.492188 C 437.460938 365.105469 438.433594 366.027344 438.847656 367.253906 C 439.265625 368.480469 439.464844 370.40625 439.464844 373.011719 L 439.464844 374.046875 Z M 423.214844 366.628906 C 422.183594 366.90625 421.503906 367.417969 421.164062 368.175781 C 420.824219 368.929688 420.625 370.148438 420.59375 371.816406 L 435.269531 371.816406 L 435.269531 371.53125 C 435.269531 369.953125 435.070312 368.789062 434.652344 368.042969 C 434.234375 367.304688 433.554688 366.8125 432.613281 366.566406 C 431.671875 366.332031 430.238281 366.210938 428.277344 366.210938 C 425.933594 366.210938 424.234375 366.351562 423.214844 366.628906 Z M 423.214844 366.628906 "/>
<path style=" stroke:none;fill-rule:nonzero;fill:rgb(74.117649%,70.980394%,68.627453%);fill-opacity:1;" d="M 460.285156 358.824219 L 460.285156 355.488281 L 464.945312 355.488281 L 464.945312 358.824219 Z M 460.4375 382.160156 L 460.4375 363.847656 L 464.820312 363.847656 L 464.820312 382.160156 Z M 460.4375 382.160156 "/>
<path style=" stroke:none;fill-rule:nonzero;fill:rgb(74.117649%,70.980394%,68.627453%);fill-opacity:1;" d="M 492.894531 371.859375 C 492.894531 370.160156 492.722656 368.941406 492.398438 368.214844 C 492.074219 367.488281 491.457031 366.996094 490.5625 366.761719 C 489.667969 366.527344 488.140625 366.40625 486.011719 366.40625 C 483.742188 366.40625 482.058594 366.648438 480.996094 367.121094 C 479.929688 367.601562 479.265625 368.257812 478.988281 369.09375 C 478.710938 369.933594 478.585938 371.140625 478.585938 372.71875 L 478.585938 382.160156 L 474.203125 382.160156 L 474.203125 363.847656 L 478.109375 363.847656 L 478.324219 366.433594 L 478.648438 366.433594 C 479.265625 365.503906 480.269531 364.789062 481.671875 364.296875 C 483.078125 363.804688 485.113281 363.558594 487.800781 363.558594 C 490.46875 363.558594 492.492188 363.816406 493.835938 364.316406 C 495.191406 364.820312 496.101562 365.566406 496.566406 366.558594 C 497.027344 367.550781 497.277344 368.929688 497.277344 370.703125 L 497.277344 382.160156 L 492.894531 382.160156 Z M 492.894531 371.859375 "/>
<path style=" stroke:none;fill-rule:nonzero;fill:rgb(74.117649%,70.980394%,68.627453%);fill-opacity:1;" d="M 508.972656 366.507812 L 503.339844 366.507812 L 503.339844 363.847656 L 508.972656 363.847656 L 508.972656 361.117188 C 508.972656 359.398438 509.328125 358.136719 510.054688 357.351562 C 510.777344 356.5625 511.890625 356.0625 513.402344 355.847656 C 514.914062 355.632812 517.292969 355.519531 520.5 355.519531 L 520.5 357.921875 C 518.402344 357.921875 516.875 357.984375 515.902344 358.117188 C 514.929688 358.25 514.25 358.496094 513.894531 358.855469 C 513.527344 359.210938 513.355469 359.785156 513.355469 360.574219 L 513.355469 363.835938 L 520.5 363.835938 L 520.5 366.496094 L 513.355469 366.496094 L 513.355469 382.148438 L 508.972656 382.148438 Z M 508.972656 366.507812 "/>
<path style=" stroke:none;fill-rule:nonzero;fill:rgb(74.117649%,70.980394%,68.627453%);fill-opacity:1;" d="M 529.175781 381.667969 C 527.507812 381.15625 526.457031 380.277344 526.011719 379.050781 C 525.5625 377.820312 525.332031 375.796875 525.332031 373.003906 C 525.332031 370.210938 525.5625 368.183594 526.011719 366.957031 C 526.457031 365.730469 527.523438 364.847656 529.175781 364.339844 C 530.839844 363.828125 533.601562 363.558594 537.460938 363.558594 C 541.289062 363.558594 544.035156 363.816406 545.6875 364.339844 C 547.351562 364.847656 548.402344 365.730469 548.851562 366.957031 C 549.296875 368.183594 549.527344 370.210938 549.527344 373.003906 C 549.527344 375.796875 549.296875 377.820312 548.851562 379.050781 C 548.402344 380.277344 547.335938 381.15625 545.6875 381.667969 C 544.019531 382.179688 541.289062 382.445312 537.460938 382.445312 C 533.601562 382.445312 530.839844 382.191406 529.175781 381.667969 Z M 542.925781 379.316406 C 543.925781 379.007812 544.558594 378.4375 544.792969 377.605469 C 545.023438 376.777344 545.144531 375.242188 545.144531 372.992188 C 545.144531 370.742188 545.023438 369.207031 544.792969 368.378906 C 544.558594 367.550781 543.925781 366.988281 542.925781 366.671875 C 541.90625 366.363281 540.085938 366.199219 537.445312 366.199219 C 534.804688 366.199219 532.96875 366.351562 531.953125 366.671875 C 530.933594 366.988281 530.285156 367.550781 530.054688 368.378906 C 529.820312 369.207031 529.699219 370.742188 529.699219 372.992188 C 529.699219 375.242188 529.820312 376.777344 530.054688 377.605469 C 530.285156 378.4375 530.917969 379 531.953125 379.316406 C 532.984375 379.632812 534.804688 379.785156 537.445312 379.785156 C 540.101562 379.785156 541.921875 379.632812 542.925781 379.316406 Z M 542.925781 379.316406 "/>
<path style=" stroke:none;fill-rule:nonzero;fill:rgb(74.117649%,70.980394%,68.627453%);fill-opacity:1;" d="M 557.769531 363.847656 L 561.675781 363.847656 L 561.890625 367.335938 L 562.214844 367.335938 C 562.863281 365.902344 563.941406 364.910156 565.46875 364.367188 C 566.984375 363.828125 568.972656 363.558594 571.425781 363.558594 L 571.425781 366.679688 C 568.925781 366.679688 567.027344 366.9375 565.6875 367.4375 C 564.34375 367.9375 563.433594 368.714844 562.925781 369.761719 C 562.414062 370.804688 562.167969 372.207031 562.167969 373.976562 L 562.167969 382.160156 L 557.785156 382.160156 L 557.785156 363.847656 Z M 557.769531 363.847656 "/>
<path style=" stroke:none;fill-rule:nonzero;fill:rgb(74.117649%,70.980394%,68.627453%);fill-opacity:1;" d="M 611.660156 371.859375 C 611.660156 370.140625 611.519531 368.910156 611.257812 368.195312 C 610.980469 367.480469 610.453125 366.996094 609.652344 366.761719 C 608.867188 366.527344 607.523438 366.40625 605.640625 366.40625 C 603.617188 366.40625 602.136719 366.628906 601.195312 367.089844 C 600.253906 367.539062 599.652344 368.195312 599.40625 369.035156 C 599.160156 369.871094 599.019531 371.109375 599.019531 372.726562 L 599.019531 382.167969 L 594.636719 382.167969 L 594.636719 371.867188 C 594.636719 370.148438 594.5 368.921875 594.234375 368.207031 C 593.957031 367.488281 593.433594 367.007812 592.632812 366.773438 C 591.84375 366.539062 590.5 366.414062 588.617188 366.414062 C 586.597656 366.414062 585.117188 366.648438 584.175781 367.121094 C 583.234375 367.582031 582.644531 368.246094 582.382812 369.09375 C 582.121094 369.945312 582 371.160156 582 372.738281 L 582 382.179688 L 577.617188 382.179688 L 577.617188 363.867188 L 581.519531 363.867188 L 581.734375 366.457031 L 582.058594 366.457031 C 582.601562 365.523438 583.527344 364.808594 584.851562 364.316406 C 586.164062 363.828125 588.03125 363.582031 590.453125 363.582031 C 592.832031 363.582031 594.636719 363.804688 595.871094 364.265625 C 597.105469 364.714844 597.941406 365.453125 598.417969 366.457031 L 598.804688 366.457031 C 599.960938 364.542969 602.832031 363.582031 607.414062 363.582031 C 609.835938 363.582031 611.660156 363.835938 612.894531 364.339844 C 614.113281 364.839844 614.945312 365.585938 615.378906 366.578125 C 615.808594 367.570312 616.027344 368.953125 616.027344 370.722656 L 616.027344 382.179688 L 611.644531 382.179688 L 611.644531 371.859375 Z M 611.660156 371.859375 "/>
<path style=" stroke:none;fill-rule:nonzero;fill:rgb(74.117649%,70.980394%,68.627453%);fill-opacity:1;" d="M 625.902344 381.28125 C 624.453125 380.503906 623.742188 379.121094 623.742188 377.136719 C 623.742188 375.722656 623.988281 374.621094 624.5 373.832031 C 625.007812 373.042969 625.855469 372.472656 627.074219 372.101562 C 628.292969 371.734375 629.992188 371.5625 632.199219 371.5625 C 633.25 371.5625 636.691406 371.621094 642.539062 371.746094 L 642.539062 370.671875 C 642.539062 369.238281 642.339844 368.214844 641.921875 367.621094 C 641.503906 367.027344 640.75 366.640625 639.652344 366.476562 C 638.558594 366.3125 636.691406 366.21875 634.050781 366.21875 C 632.894531 366.21875 631.441406 366.261719 629.683594 366.34375 C 627.925781 366.425781 626.566406 366.515625 625.59375 366.609375 L 625.59375 364.0625 C 628.449219 363.722656 631.78125 363.558594 635.609375 363.558594 C 638.867188 363.558594 641.289062 363.785156 642.894531 364.226562 C 644.5 364.664062 645.578125 365.390625 646.117188 366.382812 C 646.660156 367.375 646.9375 368.820312 646.9375 370.710938 L 646.9375 382.167969 L 642.984375 382.167969 L 642.769531 379.621094 L 642.445312 379.621094 C 641.691406 380.769531 640.46875 381.535156 638.789062 381.902344 C 637.105469 382.273438 635.132812 382.457031 632.863281 382.457031 C 629.652344 382.445312 627.335938 382.058594 625.902344 381.28125 Z M 638.925781 379.5 C 640.070312 379.285156 640.886719 378.867188 641.382812 378.242188 C 642.136719 377.382812 642.523438 376.183594 642.523438 374.648438 L 642.523438 373.820312 L 633.308594 373.820312 C 631.796875 373.820312 630.6875 373.894531 629.976562 374.035156 C 629.265625 374.179688 628.773438 374.464844 628.496094 374.875 C 628.203125 375.292969 628.0625 375.949219 628.0625 376.828125 C 628.0625 377.6875 628.234375 378.324219 628.558594 378.730469 C 628.882812 379.140625 629.484375 379.417969 630.378906 379.570312 C 631.273438 379.726562 632.648438 379.804688 634.515625 379.804688 C 636.320312 379.828125 637.785156 379.714844 638.925781 379.5 Z M 638.925781 379.5 "/>
<path style=" stroke:none;fill-rule:nonzero;fill:rgb(74.117649%,70.980394%,68.627453%);fill-opacity:1;" d="M 673.882812 379.429688 L 673.882812 381.976562 C 672.910156 382.097656 671.722656 382.199219 670.332031 382.304688 C 668.941406 382.394531 667.617188 382.445312 666.351562 382.445312 L 665.53125 382.445312 L 663.480469 388.984375 L 659.097656 388.984375 L 659.097656 388.800781 L 662.398438 382.261719 C 660.238281 382.027344 658.632812 381.535156 657.601562 380.808594 C 656.566406 380.082031 655.902344 379.121094 655.59375 377.953125 C 655.285156 376.777344 655.132812 375.132812 655.132812 373.003906 C 655.132812 370.589844 655.410156 368.714844 655.949219 367.40625 C 656.488281 366.085938 657.554688 365.125 659.144531 364.5 C 660.734375 363.878906 663.078125 363.570312 666.179688 363.570312 C 667.414062 363.570312 668.726562 363.621094 670.101562 363.714844 C 671.488281 363.804688 672.675781 363.917969 673.648438 364.042969 L 673.648438 366.628906 C 671.488281 366.363281 669.34375 366.230469 667.261719 366.230469 C 664.945312 366.230469 663.265625 366.414062 662.199219 366.773438 C 661.132812 367.132812 660.425781 367.765625 660.054688 368.675781 C 659.699219 369.585938 659.515625 371.039062 659.515625 373.023438 C 659.515625 375.027344 659.699219 376.503906 660.085938 377.421875 C 660.472656 378.34375 661.179688 378.976562 662.246094 379.304688 C 663.308594 379.644531 665.039062 379.804688 667.414062 379.804688 C 669.207031 379.785156 671.351562 379.664062 673.882812 379.429688 Z M 673.882812 379.429688 "/>
<path style=" stroke:none;fill-rule:nonzero;fill:rgb(74.117649%,70.980394%,68.627453%);fill-opacity:1;" d="M 681.675781 381.28125 C 680.222656 380.503906 679.515625 379.121094 679.515625 377.136719 C 679.515625 375.722656 679.761719 374.621094 680.269531 373.832031 C 680.78125 373.042969 681.628906 372.472656 682.847656 372.101562 C 684.066406 371.734375 685.765625 371.5625 687.972656 371.5625 C 689.019531 371.5625 692.460938 371.621094 698.308594 371.746094 L 698.308594 370.671875 C 698.308594 369.238281 698.109375 368.214844 697.691406 367.621094 C 697.277344 367.027344 696.519531 366.640625 695.425781 366.476562 C 694.328125 366.3125 692.460938 366.21875 689.824219 366.21875 C 688.664062 366.21875 687.214844 366.261719 685.457031 366.34375 C 683.695312 366.425781 682.339844 366.515625 681.367188 366.609375 L 681.367188 364.0625 C 684.222656 363.722656 687.554688 363.558594 691.382812 363.558594 C 694.636719 363.558594 697.058594 363.785156 698.664062 364.226562 C 700.269531 364.664062 701.351562 365.390625 701.890625 366.382812 C 702.429688 367.375 702.707031 368.820312 702.707031 370.710938 L 702.707031 382.167969 L 698.757812 382.167969 L 698.542969 379.621094 L 698.21875 379.621094 C 697.460938 380.769531 696.242188 381.535156 694.558594 381.902344 C 692.878906 382.273438 690.902344 382.457031 688.632812 382.457031 C 685.441406 382.445312 683.125 382.058594 681.675781 381.28125 Z M 701.441406 357.953125 C 701.257812 358.527344 700.886719 358.957031 700.332031 359.242188 C 699.777344 359.53125 698.914062 359.671875 697.753906 359.671875 C 696.8125 359.671875 695.886719 359.613281 694.960938 359.480469 C 694.035156 359.34375 692.816406 359.140625 691.304688 358.855469 C 689.097656 358.40625 687.460938 358.167969 686.382812 358.167969 C 685.625 358.167969 685.148438 358.292969 684.976562 358.546875 C 684.792969 358.804688 684.699219 359.304688 684.699219 360.070312 L 682.152344 360.070312 C 682.152344 359.019531 682.246094 358.199219 682.429688 357.625 C 682.617188 357.054688 682.984375 356.613281 683.542969 356.316406 C 684.097656 356.019531 684.960938 355.867188 686.117188 355.867188 C 687.058594 355.867188 687.972656 355.929688 688.851562 356.0625 C 689.730469 356.195312 690.964844 356.417969 692.554688 356.726562 C 692.738281 356.746094 693.203125 356.839844 693.925781 356.980469 C 694.667969 357.125 695.332031 357.238281 695.933594 357.308594 C 696.535156 357.382812 697.046875 357.421875 697.476562 357.421875 C 698.234375 357.421875 698.710938 357.289062 698.882812 357.035156 C 699.066406 356.765625 699.160156 356.257812 699.160156 355.488281 L 701.707031 355.488281 C 701.722656 356.550781 701.628906 357.382812 701.441406 357.953125 Z M 694.714844 379.5 C 695.855469 379.285156 696.675781 378.867188 697.167969 378.242188 C 697.925781 377.382812 698.308594 376.183594 698.308594 374.648438 L 698.308594 373.820312 L 689.097656 373.820312 C 687.585938 373.820312 686.472656 373.894531 685.765625 374.035156 C 685.054688 374.179688 684.558594 374.464844 684.28125 374.875 C 683.988281 375.292969 683.851562 375.949219 683.851562 376.828125 C 683.851562 377.6875 684.019531 378.324219 684.34375 378.730469 C 684.667969 379.140625 685.269531 379.417969 686.164062 379.570312 C 687.058594 379.726562 688.433594 379.804688 690.300781 379.804688 C 692.105469 379.828125 693.574219 379.714844 694.714844 379.5 Z M 694.714844 379.5 "/>
<path style=" stroke:none;fill-rule:nonzero;fill:rgb(74.117649%,70.980394%,68.627453%);fill-opacity:1;" d="M 714.777344 381.667969 C 713.109375 381.15625 712.058594 380.277344 711.613281 379.050781 C 711.164062 377.820312 710.933594 375.796875 710.933594 373.003906 C 710.933594 370.210938 711.164062 368.183594 711.613281 366.957031 C 712.058594 365.730469 713.125 364.847656 714.777344 364.339844 C 716.441406 363.828125 719.207031 363.558594 723.0625 363.558594 C 726.890625 363.558594 729.636719 363.816406 731.289062 364.339844 C 732.957031 364.847656 734.003906 365.730469 734.453125 366.957031 C 734.898438 368.183594 735.132812 370.210938 735.132812 373.003906 C 735.132812 375.796875 734.898438 377.820312 734.453125 379.050781 C 734.003906 380.277344 732.941406 381.15625 731.289062 381.667969 C 729.621094 382.179688 726.890625 382.445312 723.0625 382.445312 C 719.191406 382.445312 716.429688 382.191406 714.777344 381.667969 Z M 728.527344 379.316406 C 729.53125 379.007812 730.164062 378.4375 730.394531 377.605469 C 730.625 376.777344 730.75 375.242188 730.75 372.992188 C 730.75 370.742188 730.625 369.207031 730.394531 368.378906 C 730.164062 367.550781 729.53125 366.988281 728.527344 366.671875 C 727.507812 366.363281 725.6875 366.199219 723.046875 366.199219 C 720.410156 366.199219 718.574219 366.351562 717.554688 366.671875 C 716.519531 366.976562 715.886719 367.550781 715.65625 368.378906 C 715.425781 369.207031 715.300781 370.742188 715.300781 372.992188 C 715.300781 375.242188 715.425781 376.777344 715.65625 377.605469 C 715.886719 378.4375 716.519531 379 717.554688 379.316406 C 718.589844 379.632812 720.410156 379.785156 723.046875 379.785156 C 725.6875 379.785156 727.507812 379.632812 728.527344 379.316406 Z M 728.527344 379.316406 "/>
<path style=" stroke:none;fill-rule:nonzero;fill:rgb(74.117649%,70.980394%,68.627453%);fill-opacity:1;" d="M 518.710938 220.539062 C 511.859375 220.539062 506.488281 224.097656 506.488281 228.640625 L 506.488281 308.460938 L 409.835938 225.847656 C 406.257812 222.390625 399.683594 220.191406 393.015625 220.191406 C 381.378906 220.191406 371.921875 226.460938 371.921875 234.175781 L 371.921875 320.613281 C 371.921875 325.15625 377.289062 328.714844 384.140625 328.714844 C 390.996094 328.714844 396.363281 325.15625 396.363281 320.613281 L 396.363281 240.792969 L 493.015625 323.40625 C 496.597656 326.863281 503.171875 329.0625 509.835938 329.0625 C 521.472656 329.0625 530.933594 322.792969 530.933594 315.078125 L 530.933594 228.640625 C 530.917969 224.097656 525.546875 220.539062 518.710938 220.539062 Z M 518.710938 220.539062 "/>
<path style=" stroke:none;fill-rule:nonzero;fill:rgb(74.117649%,70.980394%,68.627453%);fill-opacity:1;" d="M 251.519531 275.21875 L 249.574219 274.269531 L 251.488281 273.296875 C 268.664062 264.570312 278.925781 250.730469 278.925781 236.261719 L 278.925781 228.46875 C 278.925781 223.902344 273.324219 220.191406 266.441406 220.191406 C 259.417969 220.191406 253.710938 223.902344 253.710938 228.46875 L 253.710938 236.261719 C 253.710938 251.863281 234.710938 265.328125 211.363281 266.269531 L 173.386719 266.269531 L 173.386719 228.457031 C 173.386719 223.894531 167.675781 220.179688 160.652344 220.179688 C 153.769531 220.179688 148.167969 223.894531 148.167969 228.457031 L 148.167969 320.785156 C 148.167969 325.351562 153.769531 329.0625 160.652344 329.0625 C 167.675781 329.0625 173.386719 325.351562 173.386719 320.785156 L 173.386719 282.976562 L 210.003906 282.976562 C 234.542969 282.976562 255.285156 296.714844 255.285156 312.992188 L 255.285156 320.785156 C 255.285156 325.351562 260.992188 329.0625 268.015625 329.0625 C 274.898438 329.0625 280.5 325.351562 280.5 320.785156 L 280.5 312.917969 C 280.238281 298.074219 269.402344 283.976562 251.519531 275.21875 Z M 251.519531 275.21875 "/>
<path style=" stroke:none;fill-rule:nonzero;fill:rgb(74.117649%,70.980394%,68.627453%);fill-opacity:1;" d="M 641.796875 267.015625 C 609.683594 264.121094 589.992188 261.714844 589.992188 249.246094 C 589.992188 245.898438 591.84375 242.789062 595.222656 240.476562 L 597.136719 239.34375 C 600.546875 237.613281 604.484375 236.722656 608.617188 236.722656 L 668.464844 236.722656 C 672.707031 236.722656 676.628906 237.644531 679.792969 239.394531 L 681.859375 240.488281 C 685.300781 242.902344 687.089844 245.960938 687.089844 249.234375 C 687.089844 253.796875 692.800781 257.511719 699.839844 257.511719 C 706.722656 257.511719 712.308594 253.796875 712.308594 249.234375 C 712.308594 241.417969 707.617188 233.929688 699.453125 228.519531 L 698.386719 227.8125 C 690.132812 222.769531 679.5 219.996094 668.480469 219.996094 L 608.632812 219.996094 C 597.601562 219.996094 586.984375 222.777344 578.710938 227.824219 L 577.507812 228.609375 C 569.328125 234.246094 564.808594 241.582031 564.808594 249.226562 C 564.808594 276.835938 612.492188 280.796875 635.410156 282.6875 C 640.160156 283.414062 645.238281 283.855469 650.609375 284.324219 C 677.261719 286.65625 688.417969 289.328125 688.417969 299.804688 C 688.417969 306.710938 680.070312 312.316406 669.792969 312.316406 L 606.8125 312.316406 C 602.105469 312.316406 597.617188 311.160156 594.191406 309.050781 L 593.710938 308.652344 C 593.558594 308.519531 593.386719 308.378906 593.203125 308.246094 C 589.929688 305.828125 588.203125 302.914062 588.203125 299.792969 C 588.203125 295.230469 582.492188 291.515625 575.46875 291.515625 C 568.585938 291.515625 562.984375 295.230469 562.984375 299.792969 L 562.984375 300.878906 C 563.308594 307.753906 567.382812 314.339844 574.4375 319.394531 L 574.976562 319.867188 C 575.238281 320.089844 575.515625 320.304688 575.824219 320.511719 C 583.988281 325.921875 595.285156 329.03125 606.8125 329.03125 L 669.792969 329.03125 C 693.957031 329.03125 713.632812 315.917969 713.632812 299.804688 C 713.589844 273.480469 673.789062 269.902344 641.796875 267.015625 Z M 641.796875 267.015625 "/>
<path style=" stroke:none;fill-rule:nonzero;fill:rgb(74.117649%,70.980394%,68.627453%);fill-opacity:1;" d="M 325.316406 220.191406 C 318.433594 220.191406 312.832031 223.902344 312.832031 228.46875 L 312.832031 320.796875 C 312.832031 325.359375 318.433594 329.074219 325.316406 329.074219 C 332.335938 329.074219 338.046875 325.359375 338.046875 320.796875 L 338.046875 228.46875 C 338.046875 223.902344 332.335938 220.191406 325.316406 220.191406 Z M 325.316406 220.191406 "/>
<path style=" stroke:none;fill-rule:nonzero;fill:rgb(74.117649%,70.980394%,68.627453%);fill-opacity:1;" d="M 1094.59375 257.386719 C 1094.59375 237.222656 1068.898438 220.191406 1038.480469 220.191406 L 983.636719 220.191406 C 973.992188 220.191406 964.683594 222.585938 957.433594 226.941406 L 956.320312 227.667969 C 949.144531 232.425781 945.039062 239.023438 945.039062 245.777344 L 945.039062 320.785156 C 945.039062 325.351562 950.640625 329.0625 957.523438 329.0625 C 964.546875 329.0625 970.257812 325.351562 970.257812 320.785156 L 970.257812 294.585938 L 1023.496094 294.585938 L 1071.367188 326.320312 C 1073.652344 328.082031 1076.96875 329.054688 1080.566406 329.054688 C 1087.585938 329.054688 1093.296875 325.339844 1093.296875 320.777344 C 1093.296875 318.261719 1091.507812 316.480469 1090.734375 315.710938 C 1090.394531 315.375 1090.023438 315.066406 1089.59375 314.792969 L 1056.304688 292.726562 L 1058.867188 292.050781 C 1080.226562 286.382812 1094.59375 272.449219 1094.59375 257.386719 Z M 1038.464844 277.871094 L 970.226562 277.871094 L 970.226562 245.777344 C 970.226562 243.394531 971.628906 241.101562 974.097656 239.464844 L 975.394531 238.675781 C 977.785156 237.511719 980.625 236.898438 983.621094 236.898438 L 1038.464844 236.898438 C 1055.210938 236.898438 1069.363281 246.277344 1069.363281 257.378906 C 1069.363281 268.488281 1055.226562 277.871094 1038.464844 277.871094 Z M 1038.464844 277.871094 "/>
<path style=" stroke:none;fill-rule:nonzero;fill:rgb(74.117649%,70.980394%,68.627453%);fill-opacity:1;" d="M 1139.097656 220.191406 C 1132.214844 220.191406 1126.613281 223.902344 1126.613281 228.46875 L 1126.613281 320.796875 C 1126.613281 325.359375 1132.214844 329.074219 1139.097656 329.074219 C 1146.121094 329.074219 1151.832031 325.359375 1151.832031 320.796875 L 1151.832031 228.46875 C 1151.832031 223.902344 1146.121094 220.191406 1139.097656 220.191406 Z M 1139.097656 220.191406 "/>
<path style=" stroke:none;fill-rule:nonzero;fill:rgb(74.117649%,70.980394%,68.627453%);fill-opacity:1;" d="M 900.84375 299.628906 L 887.941406 321.246094 L 889.253906 323.324219 L 889.515625 323.734375 C 891.074219 327.015625 895.472656 329.0625 900.765625 329.0625 C 907.492188 329.0625 912.988281 325.351562 912.988281 320.785156 L 912.988281 320.089844 C 912.988281 319.292969 912.753906 318.515625 912.277344 317.769531 Z M 900.84375 299.628906 "/>
<path style=" stroke:none;fill-rule:nonzero;fill:rgb(74.117649%,70.980394%,68.627453%);fill-opacity:1;" d="M 832.972656 237.070312 C 833.480469 237.304688 833.710938 237.417969 833.960938 237.519531 C 834.976562 237.949219 835.871094 238.71875 836.304688 239.527344 L 836.472656 239.800781 L 852.199219 264.671875 L 875.054688 258.675781 L 859.175781 233.46875 C 856.660156 229.664062 852.726562 226.410156 847.785156 224.078125 C 847.402344 223.894531 847 223.730469 846.582031 223.597656 C 841.210938 221.347656 835.070312 220.191406 828.664062 220.191406 C 822.429688 220.191406 816.644531 221.234375 811.445312 223.300781 C 810.902344 223.515625 810.410156 223.761719 809.945312 224.046875 C 804.636719 226.460938 800.796875 229.632812 798.339844 233.582031 L 745.394531 317.625 C 744.34375 319.160156 744.34375 320.378906 744.34375 320.960938 C 744.34375 325.421875 749.824219 329.0625 756.566406 329.0625 C 761.691406 329.0625 765.996094 327.191406 767.800781 324.171875 L 820.855469 239.78125 C 821.414062 238.902344 822.523438 238.042969 824.175781 237.222656 L 825.316406 236.867188 C 826.753906 236.507812 827.988281 236.386719 828.664062 236.386719 C 830.195312 236.386719 831.644531 236.621094 832.972656 237.070312 Z M 832.972656 237.070312 "/>
</g>
</svg>
